<svg xmlns="http://www.w3.org/2000/svg" viewBox="0 0 64 64">
  <rect width="64" height="64" rx="14" fill="#5b8ec9"/>
  <path d="M28 22V37m8-11v15m.9 6.22 8.67-4.33c.68-.34 1.1-1.03 1.1-1.8V17.9c0-1.49-1.57-2.45-2.9-1.79l-6.87 3.44a1.78 1.78 0 0 1-1.79 0l-8.88-4.44a2 2 0 0 0-1.79 0l-8.88 4.44C14.98 19.89 14.57 20.57 14.57 21.34v21.43c0 1.49 1.57 2.46 2.9 1.79l6.87-3.44a1.78 1.78 0 0 1 1.79 0l8.88 4.44c.56.28 1.23.28 1.79 0Z"
    fill="none" stroke="white" stroke-width="2.8" stroke-linecap="round" stroke-linejoin="round"/>
</svg>
