<svg xmlns="http://www.w3.org/2000/svg" viewBox="0 0 64 64">
  <rect width="64" height="64" rx="14" fill="#5b8ec9"/>
  <path d="M24 18.5V38m16-16v22m1.34 9.33 13-6.5c1.02-.51 1.66-1.55 1.66-2.69V12.85c0-2.23-2.35-3.68-4.34-2.68l-10.32 5.16a2.67 2.67 0 0 1-2.68 0L25.34 8.67a2.99 2.99 0 0 0-2.68 0L9.66 15.17C8.64 15.68 8 16.72 8 17.86V50.15c0 2.23 2.35 3.68 4.34 2.68l10.32-5.16a2.67 2.67 0 0 1 2.68 0l13.32 6.66c.84.42 1.84.42 2.68 0Z"
    fill="none" stroke="white" stroke-width="3.2" stroke-linecap="round" stroke-linejoin="round"/>
</svg>
